<?xml version="1.0" encoding="UTF-8"?>
<svg version="1.1" xmlns="http://www.w3.org/2000/svg" width="544" height="528">
<path d="M0 0 C179.52 0 359.04 0 544 0 C544 174.24 544 348.48 544 528 C364.48 528 184.96 528 0 528 C0 353.76 0 179.52 0 0 Z " fill="#FDFEFD" transform="translate(0,0)"/>
<path d="M0 0 C179.52 0 359.04 0 544 0 C544 174.24 544 348.48 544 528 C364.48 528 184.96 528 0 528 C0 353.76 0 179.52 0 0 Z M52.125 38.0625 C48.46620968 43.12023956 47.64772541 46.59052476 47.69848633 52.82788086 C47.70302983 53.65112067 47.70757334 54.47436049 47.71225452 55.32254696 C47.91997797 67.77794202 49.34532605 80.16958894 50.60210228 92.5532949 C50.98346545 96.33163746 51.35394661 100.11104989 51.72583008 103.89033508 C52.36674139 110.38866799 53.01439626 116.88629907 53.6668396 123.38348389 C54.61503138 132.82584267 55.55246806 142.26924689 56.48764861 151.71290207 C58.39845343 171.00427125 60.32568596 190.29398227 62.25743455 209.58326387 C63.03188316 217.31680221 63.80489301 225.05048397 64.57757843 232.78419864 C65.75028799 244.52130964 66.92337764 256.25838278 68.09741211 267.99536133 C68.16351303 268.65619307 68.22961395 269.31702482 68.29771793 269.99788177 C69.15465889 278.5637419 70.01434216 287.1293224 70.87634563 295.69467449 C73.62337319 322.99317349 76.33230787 350.29445001 78.9497242 377.60564804 C79.36703476 381.9593745 79.78573661 386.31296643 80.20469666 390.66653442 C80.47870288 393.51482821 80.75265896 396.36312682 81.02661133 399.21142578 C81.0937903 399.90970938 81.16096926 400.60799298 81.23018396 401.32743669 C81.95631464 408.8772047 82.67876346 416.42728918 83.39022827 423.97845459 C83.98688491 430.31049823 84.5915416 436.64172676 85.20211983 442.97244263 C85.42337803 445.28373316 85.64143101 447.59533321 85.85597038 449.90725708 C86.86584095 472.02283793 86.86584095 472.02283793 97.5625 490.3125 C100.85122017 492.58930627 103.33039598 493.12505486 107.233078 493.12025452 C108.52662956 493.12231651 108.52662956 493.12231651 109.84631348 493.12442017 C110.78930298 493.12082489 111.73229248 493.11722961 112.70385742 493.11352539 C114.19681084 493.11374443 114.19681084 493.11374443 115.71992493 493.1139679 C119.01512825 493.11327032 122.31027529 493.10548511 125.60546875 493.09765625 C127.88804595 493.09579152 130.17062355 493.09436788 132.45320129 493.09336853 C138.46525169 493.08954767 144.47727798 493.07972104 150.48931885 493.06866455 C156.62243321 493.05844118 162.75555145 493.05386892 168.88867188 493.04882812 C180.92579355 493.03809841 192.962891 493.02050507 205 493 C205 499.93 205 506.86 205 514 C248.23 514 291.46 514 336 514 C336 507.07 336 500.14 336 493 C340.34478516 493.0314209 340.34478516 493.0314209 344.77734375 493.06347656 C354.36056642 493.12983392 363.94379939 493.17397036 373.52719116 493.20724869 C379.33612243 493.22809978 385.14481778 493.2563726 390.95361328 493.30175781 C396.56220816 493.34530327 402.17057647 493.36915575 407.77932739 493.37950897 C409.9163062 493.38688467 412.05327299 493.40128771 414.19015503 493.42292023 C417.18954 493.45206936 420.18799557 493.45595113 423.1875 493.45410156 C424.50488914 493.47567322 424.50488914 493.47567322 425.84889221 493.49768066 C433.21938133 493.44868496 438.41077457 491.4166104 443.8125 486.375 C449.97568721 478.02802269 449.87361216 466.52491784 450.734375 456.5859375 C450.88919277 454.89230145 451.04506775 453.19876177 451.20188904 451.50531006 C451.54442129 447.7888612 451.88101257 444.07193852 452.21322632 440.35455322 C453.06491261 430.83732911 453.95216769 421.32337429 454.83667564 411.80915451 C455.05441265 409.4660498 455.27179419 407.12291203 455.4888401 404.77974319 C457.39820405 384.17398461 459.39599332 363.57777078 461.43359375 342.984375 C461.54625474 341.84561645 461.54625474 341.84561645 461.6611917 340.68385267 C462.5954981 331.24196428 463.53218714 321.80031281 464.46955138 312.35872757 C466.00174533 296.92442544 467.52905106 281.48963907 469.0546875 266.0546875 C469.13537861 265.23846058 469.21606972 264.42223367 469.29920602 263.5812726 C473.73736689 218.68273966 478.06801826 173.77385251 482.38973045 128.86398578 C482.60607281 126.61586805 482.82244348 124.36775304 483.03881836 122.11963844 C483.70053632 115.24397975 484.36177881 108.36827617 485.0218811 101.49246216 C485.2564957 99.05128651 485.49114413 96.61011411 485.72583008 94.16894531 C485.835914 93.02196859 485.94599792 91.87499187 486.05941772 90.69325829 C486.56012582 85.49282927 487.06842044 80.29344599 487.59994507 75.09606934 C487.73927098 73.73014208 487.73927098 73.73014208 487.88141155 72.33662033 C488.05048603 70.68820651 488.22150292 69.03998989 488.39511585 67.39204788 C490.50327544 51.89672388 490.50327544 51.89672388 485 38 C480.57992203 33.3390173 476.33005881 30.26115671 469.75928086 29.74584967 C468.52003336 29.74389875 467.28078586 29.74194782 466.0039854 29.73993778 C465.30837974 29.73613211 464.61277408 29.73232644 463.89608946 29.72840545 C461.55977594 29.71807992 459.22370493 29.72199756 456.88737488 29.72584534 C455.19759058 29.72139346 453.50780837 29.71607958 451.81802922 29.70997661 C447.17010956 29.69578029 442.52225672 29.69413363 437.87431848 29.69457352 C432.86328582 29.69292677 427.8522808 29.67986298 422.84126282 29.66838074 C411.88269395 29.64552145 400.92414443 29.63760927 389.96555495 29.63255429 C383.12453342 29.62929865 376.28351751 29.62277702 369.44249916 29.6155529 C350.50558624 29.59598653 331.56867856 29.57958228 312.63175488 29.57667637 C311.41972236 29.5764888 310.20768985 29.57630123 308.95892908 29.57610798 C306.50179851 29.57574172 304.04466794 29.57537802 301.58753737 29.57501686 C300.36779799 29.57483405 299.1480586 29.57465124 297.89135742 29.57446289 C296.67013136 29.57428234 295.44890529 29.57410179 294.19067238 29.57391577 C274.39584196 29.570373 254.60112025 29.54334432 234.80632754 29.505965 C214.48850182 29.46790465 194.17073008 29.44851906 173.8528679 29.44821686 C162.44297176 29.44763181 151.03320532 29.43910919 139.62334251 29.41021919 C129.90912038 29.38573584 120.19507526 29.37840191 110.48083063 29.39346672 C105.52384799 29.40064781 100.56721513 29.39972643 95.61027145 29.37705612 C91.07198977 29.3564992 86.53432751 29.35903564 81.99605278 29.37993097 C80.35474716 29.38343214 78.71339715 29.37848927 77.07214978 29.36422653 C66.5682611 29.27883232 59.32727561 29.9398391 52.125 38.0625 Z " fill="#008061" transform="translate(0,0)"/>
<path d="M0 0 C0 36.63 0 73.26 0 111 C-5.28 113.31 -10.56 115.62 -16 118 C-18.72067928 119.54082994 -21.17075521 120.96799033 -23.6875 122.75 C-24.29360107 123.16701172 -24.89970215 123.58402344 -25.52416992 124.01367188 C-49.41502845 140.76870409 -70.03079704 163.81107643 -79 192 C-79.33 194.31 -79.66 196.62 -80 199 C-115.97 199 -151.94 199 -189 199 C-185.4653893 181.32694652 -185.4653893 181.32694652 -182.9375 173.9375 C-182.63859863 173.06029297 -182.33969727 172.18308594 -182.03173828 171.27929688 C-173.33807326 146.49553558 -160.29449043 124.51472896 -144 104 C-143.22398437 102.9996875 -142.44796875 101.999375 -141.6484375 100.96875 C-135.27697714 93.08225183 -128.14078707 85.93281417 -121 78.75 C-120.49134399 78.23598633 -119.98268799 77.72197266 -119.45861816 77.19238281 C-112.64427254 70.32372431 -105.60559111 64.00133248 -98 58 C-96.59854111 56.86249301 -95.19746813 55.72451031 -93.796875 54.5859375 C-25.45983426 0 -25.45983426 0 0 0 Z " fill="#ED1C2E" transform="translate(424,86)"/>
<path d="M0 0 C87.78 0 175.56 0 266 0 C263.33423147 2.66576853 260.17009815 3.95189047 256.8125 5.5625 C232.78832655 17.35387089 210.82454346 33.30137032 190 50 C189.04222656 50.76183594 188.08445312 51.52367187 187.09765625 52.30859375 C161.5324541 72.51128424 161.5324541 72.51128424 142.76237774 98.61036968 C141 101 141 101 138.42880726 101.61523914 C137.39179015 101.61063018 136.35477304 101.60602121 135.28633118 101.60127258 C134.09581146 101.6081459 132.90529175 101.61501923 131.67869568 101.62210083 C130.37102737 101.60412445 129.06335907 101.58614807 127.71606445 101.56762695 C126.32647757 101.56621673 124.93688696 101.56700795 123.54730225 101.56983948 C119.77248151 101.57127611 115.99845259 101.54184757 112.22381616 101.50696969 C108.28004469 101.47574671 104.33625575 101.47277868 100.39237976 101.46684265 C92.92307678 101.45129217 85.45413901 101.41024772 77.98499697 101.3600952 C67.89272389 101.29379806 57.80035118 101.26677692 47.70791531 101.23758411 C31.80500322 101.19054638 15.9028619 101.09094279 0 101 C0 67.67 0 34.34 0 0 Z " fill="#F58220" transform="translate(120,91)"/>
<path d="M0 0 C37.62 0 75.24 0 114 0 C113.34 8.58 112.68 17.16 112 26 C110.7172758 46.75294842 110.6623122 67.52598586 110.4375 88.3125 C110.293125 101.079375 110.14875 113.84625 110 127 C71.72 127 33.44 127 -6 127 C-6 89.3838807 -6 89.3838807 -5.6875 77.375 C-5.65823929 76.20884659 -5.65823929 76.20884659 -5.62838745 75.01913452 C-5.25875345 60.93068313 -4.48416394 46.87475473 -3.5625 32.8125 C-3.50105804 31.85373962 -3.43961609 30.89497925 -3.37631226 29.90716553 C-3.19725081 27.15237858 -3.00871015 24.39842252 -2.81640625 21.64453125 C-2.76426971 20.84599228 -2.71213318 20.04745331 -2.65841675 19.22471619 C-2.17902044 12.66764565 -1.09530713 6.5718428 0 0 Z " fill="#ED1B2D" transform="translate(219,379)"/>
<path d="M0 0 C6.93 0 13.86 0 21 0 C21.97882459 5.5867116 22.95749867 11.17344914 23.93579102 16.76025391 C24.26838508 18.6593579 24.60106637 20.55844662 24.93383789 22.45751953 C25.41315481 25.19299334 25.89215418 27.9285226 26.37109375 30.6640625 C26.51904892 31.50804596 26.66700409 32.35202942 26.81944275 33.22158813 C27.56436952 37.47819779 28.29739834 41.73614274 29 46 C31.44580402 35.95453757 33.37510874 25.86203535 35.1875 15.6875 C35.46259853 14.15684852 35.73798751 12.6262492 36.01367188 11.09570312 C36.67965262 7.39781002 37.33970566 3.69893042 38 0 C43.94 0 49.88 0 56 0 C54.29428105 13.37438726 51.62756349 26.53182321 49 39.75 C48.54393839 42.0585281 48.08820684 44.36712143 47.6328125 46.67578125 C45.76820382 56.11981719 43.88788356 65.5605822 42 75 C31.77 75 21.54 75 11 75 C9.11914062 63.08789062 9.11914062 63.08789062 7.23828125 51.17578125 C7.11614258 50.40226318 6.99400391 49.62874512 6.86816406 48.83178711 C6.62138588 47.2688041 6.37464145 45.70581576 6.12792969 44.14282227 C5.36093125 39.28399729 4.59261111 34.42538335 3.82348633 29.56689453 C3.44622551 27.18020084 3.0706132 24.7932526 2.6953125 22.40625 C2.25933014 19.63421892 1.81593244 16.86378047 1.3671875 14.09375 C1.18414062 12.9490625 1.00109375 11.804375 0.8125 10.625 C0.65394531 9.64789063 0.49539063 8.67078125 0.33203125 7.6640625 C0 5 0 5 0 0 Z " fill="#038163" transform="translate(257,296)"/>
<path d="M0 0 C14.19 0 28.38 0 43 0 C43 5.94 43 11.88 43 18 C36.73 18 30.46 18 24 18 C24 22.29 24 26.58 24 31 C30.27 31 36.54 31 43 31 C43 35.95 43 40.9 43 46 C36.73 46 30.46 46 24 46 C24 50.29 24 54.58 24 59 C30.27 59 36.54 59 43 59 C43 64.61 43 70.22 43 76 C28.81 76 14.62 76 0 76 C0 50.92 0 25.84 0 0 Z " fill="#0A8567" transform="translate(318,295)"/>
<path d="M0 0 C14.19 0 28.38 0 43 0 C43 5.61 43 11.22 43 17 C36.73 17 30.46 17 24 17 C24 21.62 24 26.24 24 31 C30.27 31 36.54 31 43 31 C43 35.95 43 40.9 43 46 C37.06 46 31.12 46 25 46 C25 50.29 25 54.58 25 59 C30.94 59 36.88 59 43 59 C43 64.61 43 70.22 43 76 C28.81 76 14.62 76 0 76 C0 50.92 0 25.84 0 0 Z " fill="#0A8567" transform="translate(111,295)"/>
<path d="M0 0 C13.86 0 27.72 0 42 0 C42 5.28 42 10.56 42 16 C36.06 16 30.12 16 24 16 C24 20.62 24 25.24 24 30 C29.94 30 35.88 30 42 30 C42 34.62 42 39.24 42 44 C36.06 44 30.12 44 24 44 C24 48.95 24 53.9 24 59 C29.94 59 35.88 59 42 59 C42 64.28 42 69.56 42 75 C28.14 75 14.28 75 0 75 C0 50.25 0 25.5 0 0 Z " fill="#028162" transform="translate(210,296)"/>
<path d="M0 0 C7.59 0 15.18 0 23 0 C23 19.47 23 38.94 23 59 C29.27 59 35.54 59 42 59 C42 64.28 42 69.56 42 75 C28.14 75 14.28 75 0 75 C0 50.25 0 25.5 0 0 Z " fill="#018061" transform="translate(162,296)"/>
<path d="M0 0 C1.27746094 -0.01675781 2.55492187 -0.03351563 3.87109375 -0.05078125 C8.97517343 0.451525 12.10669908 1.83260279 15.70770264 5.49320984 C18.01631624 9.00230023 18.04714773 11.03692249 18.01660156 15.21411133 C18.01718567 15.88783783 18.01776978 16.56156433 18.01837158 17.25570679 C18.01559826 19.46918356 17.9845454 21.68129155 17.953125 23.89453125 C17.94565985 25.43437464 17.93996821 26.97422756 17.93597412 28.51408386 C17.92073912 32.55685899 17.8814765 36.59905459 17.8371582 40.64160156 C17.79615895 44.77075359 17.77795322 48.89999974 17.7578125 53.02929688 C17.71497932 61.12399284 17.64464771 69.21810744 17.5625 77.3125 C9.9725 77.3125 2.3825 77.3125 -5.4375 77.3125 C-5.4375 58.5025 -5.4375 39.6925 -5.4375 20.3125 C-14.31946601 19.56714401 -14.31946601 19.56714401 -17.4375 21.3125 C-17.57286629 18.89395554 -17.67170279 16.48300217 -17.75 14.0625 C-17.79189453 13.38058594 -17.83378906 12.69867188 -17.87695312 11.99609375 C-17.96654783 8.30479204 -17.78921807 6.68849596 -15.23046875 3.953125 C-9.95219866 0.85260271 -6.17399595 0.01865256 0 0 Z " fill="#048264" transform="translate(411.4375,293.6875)"/>
<path d="M0 0 C7.26 0 14.52 0 22 0 C22 24.42 22 48.84 22 74 C14.74 74 7.48 74 0 74 C0 49.58 0 25.16 0 0 Z " fill="#008061" transform="translate(371,296)"/>
</svg>
