<svg width="118" height="118" viewBox="0 0 118 118" fill="none" xmlns="http://www.w3.org/2000/svg">
<path d="M58.9999 105.896C58.8928 105.772 58.7785 105.64 58.6575 105.5C57.7248 104.417 56.39 102.839 54.787 100.864C51.5798 96.9125 47.3059 91.3791 43.035 85.0491C38.7613 78.7147 34.509 71.6099 31.3298 64.5133C28.1417 57.3971 26.0833 50.3996 26.0833 44.25C26.0833 26.0509 40.8008 11.3333 58.9999 11.3333C77.199 11.3333 91.9166 26.0509 91.9166 44.25C91.9166 50.3996 89.8581 57.3971 86.6701 64.5133C83.4908 71.6099 79.2386 78.7147 74.9648 85.0491C70.6939 91.3791 66.4201 96.9125 63.2128 100.864C61.6099 102.839 60.275 104.417 59.3424 105.5C59.2213 105.64 59.1071 105.772 58.9999 105.896ZM49.2477 54.0022C51.8342 56.5886 55.3421 58.0416 58.9999 58.0416C62.6577 58.0416 66.1657 56.5886 68.7521 54.0022C71.3385 51.4157 72.7916 47.9078 72.7916 44.25C72.7916 40.5922 71.3385 37.0842 68.7521 34.4978C66.1657 31.9114 62.6577 30.4583 58.9999 30.4583C55.3421 30.4583 51.8342 31.9114 49.2477 34.4978C46.6613 37.0842 45.2083 40.5922 45.2083 44.25C45.2083 47.9078 46.6613 51.4157 49.2477 54.0022Z" fill="#FF3737" stroke="white" stroke-width="3"/>
</svg>
